<svg xmlns="http://www.w3.org/2000/svg" viewBox="0 0 32 32" fill="none">
  <!-- Círculo de fondo -->
  <circle cx="16" cy="16" r="16" fill="#171717"/>
  <!-- Borde -->
  <circle cx="16" cy="16" r="15.5" stroke="rgba(255, 255, 255, 0.08)" stroke-width="1"/>
  <!-- Icono PiggyBank centrado (24x24 centrado en 32x32) -->
  <g transform="translate(4, 4)">
    <path d="M11 17h3v2a1 1 0 0 0 1 1h2a1 1 0 0 0 1-1v-3a3.16 3.16 0 0 0 2-2h1a1 1 0 0 0 1-1v-2a1 1 0 0 0-1-1h-1a5 5 0 0 0-2-4V3a4 4 0 0 0-3.2 1.6l-.3.4H11a6 6 0 0 0-6 6v1a5 5 0 0 0 2 4v3a1 1 0 0 0 1 1h2a1 1 0 0 0 1-1z" fill="currentColor" opacity="0.9"/>
    <circle cx="16" cy="10" r="1" fill="currentColor" opacity="0.9"/>
    <path d="M2 8v1a2 2 0 0 0 2 2h1" stroke="currentColor" stroke-width="2" stroke-linecap="round" stroke-linejoin="round" opacity="0.9"/>
  </g>
</svg>
